<svg version="1.1" id="Layer_1" xmlns="http://www.w3.org/2000/svg" xmlns:xlink="http://www.w3.org/1999/xlink" x="0px" y="0px"
	 width="100%" viewBox="0 0 501 498" enable-background="new 0 0 501 498" xml:space="preserve">
<path fill="#FEFFFF" opacity="1.000000" stroke="none" 
	d="
M332.000000,499.000000 
	C221.333359,499.000000 111.166718,499.000000 1.000059,499.000000 
	C1.000039,333.000061 1.000039,167.000137 1.000020,1.000148 
	C167.999893,1.000099 334.999786,1.000099 501.999756,1.000049 
	C501.999847,166.999863 501.999847,332.999725 501.999939,498.999786 
	C445.500000,499.000000 389.000000,499.000000 332.000000,499.000000 
M176.499924,195.765488 
	C176.499924,209.377350 176.499924,222.989212 176.499924,236.788727 
	C179.393753,236.788727 181.653412,236.788727 184.413849,236.788727 
	C184.413849,230.788834 184.413849,225.036972 184.413849,219.433243 
	C190.277832,217.763397 194.191589,219.063339 196.396332,224.626663 
	C197.425186,227.222794 199.488525,229.415054 200.475174,232.020538 
	C202.527817,237.440979 206.329727,237.897446 212.204819,236.299072 
	C207.796066,228.699677 203.605759,221.476822 199.373535,214.181747 
	C203.063965,207.626175 206.909668,200.794754 210.853470,193.789093 
	C204.938614,191.921417 201.590149,193.276550 199.634583,198.232376 
	C198.609970,200.829025 196.614120,203.037308 195.546417,205.623123 
	C193.412491,210.791122 189.729614,211.858795 184.135956,210.321671 
	C184.135956,204.668823 184.135956,198.970001 184.135956,193.219971 
	C181.340378,193.219971 179.198364,193.219971 177.247330,192.558060 
	C202.260300,162.644150 233.869202,151.246185 272.165619,158.932053 
	C277.369781,159.976517 282.376495,161.994370 287.574341,163.087524 
	C289.105835,163.409622 291.627472,162.632446 292.590576,161.455231 
	C298.276215,154.505844 303.712463,147.346802 309.076263,140.141922 
	C312.213501,135.927841 311.840759,134.516663 306.835144,132.387543 
	C300.714417,129.784119 294.492218,127.391998 288.209320,125.209618 
	C285.408630,124.236801 283.729126,123.153038 283.607941,119.797195 
	C283.325989,111.989914 282.558746,104.201546 282.107544,96.398613 
	C281.671692,88.861160 278.488037,85.468910 270.841400,85.479980 
	C257.190308,85.499733 243.538391,85.754402 229.889420,86.036583 
	C224.659439,86.144707 221.600143,89.048164 221.110046,94.331230 
	C220.326813,102.774231 219.929214,111.257179 218.950058,119.674545 
	C218.737305,121.503510 217.140594,123.963913 215.525650,124.705322 
	C206.779175,128.720764 197.780289,132.182159 188.969971,136.065002 
	C185.796875,137.463425 183.553528,137.177994 180.953644,134.718338 
	C175.395554,129.460022 169.585159,124.454613 163.699585,119.560272 
	C158.181564,114.971558 153.637787,115.082100 148.647141,119.990509 
	C139.145096,129.335953 129.734497,138.777740 120.440117,148.329544 
	C115.875755,153.020325 115.944847,157.529968 120.260857,162.492905 
	C125.285522,168.270706 130.360306,174.005661 135.470291,179.708160 
	C137.462204,181.931046 138.713684,183.881744 137.207825,187.220642 
	C133.177856,196.156097 129.517990,205.263779 125.918808,214.384995 
	C124.842239,217.113297 123.323235,218.109970 120.395164,218.259247 
	C112.929031,218.639847 105.477692,219.364975 98.031532,220.069519 
	C88.715813,220.950974 86.316826,223.676758 86.339233,233.166336 
	C86.367157,244.995865 86.419815,256.825348 86.477821,268.654816 
	C86.518372,276.922577 89.921600,280.461884 98.097603,281.016937 
	C105.567535,281.524017 113.020523,282.315857 120.495514,282.696747 
	C123.665466,282.858276 125.075768,284.221375 126.184525,287.105072 
	C129.524933,295.793060 133.040939,304.425690 136.871246,312.907013 
	C138.337982,316.154755 138.068420,318.446411 135.739197,320.999695 
	C130.803528,326.410095 126.052017,331.988190 121.207092,337.481750 
	C115.682182,343.746246 115.673386,347.854065 121.605354,353.893127 
	C130.361450,362.807281 139.211044,371.631439 148.122787,380.390198 
	C153.885071,386.053528 158.665115,385.951447 164.718781,380.522125 
	C170.293320,375.522552 176.021484,370.693970 181.581757,365.678955 
	C183.860855,363.623352 185.943848,363.379700 188.807175,364.672577 
	C197.586761,368.636810 206.573425,372.146332 215.311066,376.196198 
	C216.966583,376.963531 218.727203,379.297455 218.932404,381.081818 
	C219.710510,387.847046 219.915756,394.681244 220.249207,401.493835 
	C220.765381,412.040009 223.849792,415.067535 234.353149,415.103241 
	C246.349426,415.144012 258.345856,415.183594 270.342102,415.158020 
	C277.917938,415.141846 281.094696,412.606476 281.954926,405.121033 
	C282.847229,397.356293 283.395050,389.534149 283.656616,381.722473 
	C283.780304,378.028595 285.419373,376.462921 288.638000,375.348877 
	C294.760712,373.229706 300.844055,370.953918 306.797607,368.402161 
	C311.967682,366.186127 312.269318,364.251556 308.786438,359.758881 
	C303.996613,353.580292 298.939423,347.585846 294.513763,341.156586 
	C291.816803,337.238708 289.198334,336.612488 284.906281,338.319763 
	C269.877991,344.297668 253.942505,345.959534 238.258560,343.666290 
	C211.957092,339.820679 190.200562,327.028809 174.854599,304.949097 
	C155.803177,277.537964 152.502823,247.677917 163.852646,216.517441 
	C166.673782,208.772141 172.171631,202.001801 176.499924,195.765488 
M274.629211,193.790695 
	C273.822601,195.653610 272.361023,197.501587 272.318085,199.381943 
	C272.078857,209.865677 272.232422,220.357681 272.146790,230.846008 
	C272.110535,235.287796 274.172150,237.173172 278.556763,237.069946 
	C284.047913,236.940704 289.557465,236.797440 295.036011,237.091064 
	C307.583740,237.763626 309.930634,235.025375 309.224335,221.320801 
	C309.133606,219.560165 308.256836,217.850586 307.861389,216.091019 
	C307.637207,215.093674 307.487274,214.026474 307.587097,213.018799 
	C307.990540,208.947052 308.980530,204.871460 308.855133,200.825134 
	C308.701477,195.868027 305.768555,193.191925 300.804840,193.118546 
	C292.327423,192.993179 283.844513,193.240952 274.629211,193.790695 
M266.301453,292.381104 
	C266.414795,294.534180 266.405548,296.702057 266.662781,298.837799 
	C267.759064,307.941010 271.172150,310.983978 280.278809,311.036316 
	C284.929779,311.063019 289.588013,311.165741 294.230713,310.959045 
	C300.570374,310.676819 304.471191,307.638550 304.929901,301.369232 
	C305.520081,293.303772 305.532440,285.133759 304.971252,277.066010 
	C304.519287,270.568207 300.560822,267.366943 294.030792,267.095612 
	C288.724640,266.875122 283.394806,266.894989 278.087738,267.110535 
	C271.571106,267.375214 267.845978,270.602112 267.024994,277.017365 
	C266.416687,281.770813 266.515564,286.614807 266.301453,292.381104 
M215.972443,280.810364 
	C215.997955,286.791199 215.747711,292.789001 216.114517,298.748840 
	C216.645798,307.381378 220.585739,310.905365 229.175385,311.022614 
	C233.660934,311.083801 238.150024,311.112823 242.634079,311.008606 
	C250.191727,310.832947 254.215973,307.563416 254.775406,300.011383 
	C255.313690,292.744843 255.305008,285.377014 254.776505,278.108978 
	C254.232697,270.630402 250.140060,267.277618 242.619263,267.050995 
	C238.634857,266.930908 234.643921,267.005676 230.656082,267.025604 
	C220.559006,267.076050 217.423782,269.839935 215.972443,280.810364 
M372.700684,292.755188 
	C375.364655,292.756836 378.038879,292.906921 380.690186,292.724487 
	C384.442932,292.466248 386.968597,292.733002 386.917084,297.792450 
	C386.869202,302.492828 385.023682,303.317139 380.922516,303.131836 
	C374.327637,302.833893 367.709412,303.051880 360.794800,303.051880 
	C360.794800,305.959412 360.794800,308.339478 360.794800,310.979095 
	C369.690826,310.979095 378.172119,311.147369 386.642487,310.916168 
	C391.740662,310.777008 394.113098,307.445953 394.620575,300.752502 
	C395.326202,291.444733 393.238434,286.183136 388.317474,285.075897 
	C387.196533,284.823700 386.000153,284.860779 384.837616,284.848450 
	C381.840973,284.816650 378.841156,284.909576 375.847565,284.807892 
	C372.325928,284.688324 368.043213,286.392487 368.117554,279.755981 
	C368.194000,272.931152 372.773102,275.186462 376.062775,275.051208 
	C381.648804,274.821625 387.251099,274.988068 392.922180,274.988068 
	C392.922180,272.008698 392.922180,269.630981 392.922180,267.045013 
	C384.514862,267.045013 376.529816,266.969757 368.547180,267.075470 
	C364.306030,267.131622 361.699890,269.564392 360.960846,273.634277 
	C360.460114,276.391724 360.245789,279.265381 360.385712,282.062927 
	C360.818939,290.723602 362.982544,292.658112 372.700684,292.755188 
M260.994904,224.147156 
	C260.994904,213.889328 260.994904,203.631500 260.994904,193.412720 
	C258.074554,193.412720 255.853470,193.412720 253.117249,193.412720 
	C253.117249,195.597092 253.120850,197.391922 253.116592,199.186707 
	C253.097672,207.182770 253.035309,215.179031 253.072998,223.174820 
	C253.092667,227.345306 251.261078,229.296158 246.982208,229.076385 
	C243.492935,228.897156 239.984451,228.947952 236.489655,229.058990 
	C232.727539,229.178513 230.907104,227.449448 230.883224,223.725845 
	C230.849030,218.395721 230.792267,213.065735 230.770676,207.735580 
	C230.751358,202.960541 230.766586,198.185379 230.766586,193.345398 
	C227.711990,193.345398 225.468063,193.345398 223.068878,193.345398 
	C223.068878,204.475723 222.704620,215.297485 223.196350,226.080215 
	C223.526489,233.319229 227.773117,236.727768 234.982132,236.954987 
	C238.810211,237.075653 242.644470,237.021790 246.475845,237.012512 
	C256.344116,236.988632 259.088470,234.710144 260.994904,224.147156 
M348.260864,236.983139 
	C350.056976,236.983139 351.853088,236.983139 353.836975,236.983139 
	C353.836975,233.642502 353.836975,230.749557 353.836975,227.393753 
	C347.535339,227.393753 341.565063,227.437668 335.595673,227.381912 
	C329.065948,227.320923 327.972229,225.861786 329.326202,218.866714 
	C335.395599,218.866714 341.531433,218.868134 347.667267,218.866364 
	C354.635864,218.864365 354.814514,218.631470 353.280060,210.925797 
	C346.947784,210.925797 340.500061,210.886398 334.053040,210.934006 
	C320.678802,211.032745 319.823730,208.190674 321.062927,226.025162 
	C321.563110,233.223984 325.623047,236.730591 332.836548,236.952942 
	C337.659424,237.101608 342.490570,236.982452 348.260864,236.983139 
M174.592606,274.977814 
	C176.857239,274.977814 179.121872,274.977814 181.892334,274.977814 
	C181.892334,287.284973 181.892334,298.996460 181.892334,310.803223 
	C184.520828,310.803223 186.633682,310.803223 189.200943,310.803223 
	C189.200943,298.875458 189.200943,287.140930 189.200943,274.983307 
	C193.613312,274.983307 197.608978,275.269928 201.517471,274.812103 
	C202.721207,274.671173 204.485947,272.533264 204.543381,271.245056 
	C204.604355,269.877106 202.970978,267.226776 202.028091,267.204254 
	C190.303391,266.924164 178.569687,267.021118 166.999084,267.021118 
	C165.250931,274.772003 165.450424,274.986755 174.592606,274.977814 
M316.924530,290.467773 
	C317.258148,294.592651 317.338776,298.758209 317.994019,302.831329 
	C318.700409,307.222198 321.688202,310.307434 325.995789,310.580872 
	C333.546661,311.060120 341.149902,310.714630 348.794434,310.714630 
	C348.794434,308.083344 348.794434,305.841095 348.794434,303.047791 
	C343.035248,303.047791 337.589172,303.066162 332.143311,303.042938 
	C325.908325,303.016327 324.990143,302.138641 324.931000,295.773590 
	C324.861450,288.287079 324.914124,280.799469 324.910614,273.312317 
	C324.907379,266.357483 324.662994,266.173004 316.924744,267.771393 
	C316.924744,274.924194 316.924744,282.201111 316.924530,290.467773 
M333.521790,200.928497 
	C340.260468,200.928497 346.999146,200.928497 353.881287,200.928497 
	C353.881287,197.999939 353.881287,195.758698 353.881287,193.281464 
	C342.783661,193.281464 331.970276,193.281464 320.695160,193.281464 
	C320.820648,195.980103 320.930328,198.338379 321.050751,200.927673 
	C325.255188,200.927673 328.894653,200.927673 333.521790,200.928497 
z"/>
<path fill="#54AEE6" opacity="1.000000" stroke="none" 
	d="
M176.439133,194.783310 
	C172.171631,202.001801 166.673782,208.772141 163.852646,216.517441 
	C152.502823,247.677917 155.803177,277.537964 174.854599,304.949097 
	C190.200562,327.028809 211.957092,339.820679 238.258560,343.666290 
	C253.942505,345.959534 269.877991,344.297668 284.906281,338.319763 
	C289.198334,336.612488 291.816803,337.238708 294.513763,341.156586 
	C298.939423,347.585846 303.996613,353.580292 308.786438,359.758881 
	C312.269318,364.251556 311.967682,366.186127 306.797607,368.402161 
	C300.844055,370.953918 294.760712,373.229706 288.638000,375.348877 
	C285.419373,376.462921 283.780304,378.028595 283.656616,381.722473 
	C283.395050,389.534149 282.847229,397.356293 281.954926,405.121033 
	C281.094696,412.606476 277.917938,415.141846 270.342102,415.158020 
	C258.345856,415.183594 246.349426,415.144012 234.353149,415.103241 
	C223.849792,415.067535 220.765381,412.040009 220.249207,401.493835 
	C219.915756,394.681244 219.710510,387.847046 218.932404,381.081818 
	C218.727203,379.297455 216.966583,376.963531 215.311066,376.196198 
	C206.573425,372.146332 197.586761,368.636810 188.807175,364.672577 
	C185.943848,363.379700 183.860855,363.623352 181.581757,365.678955 
	C176.021484,370.693970 170.293320,375.522552 164.718781,380.522125 
	C158.665115,385.951447 153.885071,386.053528 148.122787,380.390198 
	C139.211044,371.631439 130.361450,362.807281 121.605354,353.893127 
	C115.673386,347.854065 115.682182,343.746246 121.207092,337.481750 
	C126.052017,331.988190 130.803528,326.410095 135.739197,320.999695 
	C138.068420,318.446411 138.337982,316.154755 136.871246,312.907013 
	C133.040939,304.425690 129.524933,295.793060 126.184525,287.105072 
	C125.075768,284.221375 123.665466,282.858276 120.495514,282.696747 
	C113.020523,282.315857 105.567535,281.524017 98.097603,281.016937 
	C89.921600,280.461884 86.518372,276.922577 86.477821,268.654816 
	C86.419815,256.825348 86.367157,244.995865 86.339233,233.166336 
	C86.316826,223.676758 88.715813,220.950974 98.031532,220.069519 
	C105.477692,219.364975 112.929031,218.639847 120.395164,218.259247 
	C123.323235,218.109970 124.842239,217.113297 125.918808,214.384995 
	C129.517990,205.263779 133.177856,196.156097 137.207825,187.220642 
	C138.713684,183.881744 137.462204,181.931046 135.470291,179.708160 
	C130.360306,174.005661 125.285522,168.270706 120.260857,162.492905 
	C115.944847,157.529968 115.875755,153.020325 120.440117,148.329544 
	C129.734497,138.777740 139.145096,129.335953 148.647141,119.990509 
	C153.637787,115.082100 158.181564,114.971558 163.699585,119.560272 
	C169.585159,124.454613 175.395554,129.460022 180.953644,134.718338 
	C183.553528,137.177994 185.796875,137.463425 188.969971,136.065002 
	C197.780289,132.182159 206.779175,128.720764 215.525650,124.705322 
	C217.140594,123.963913 218.737305,121.503510 218.950058,119.674545 
	C219.929214,111.257179 220.326813,102.774231 221.110046,94.331230 
	C221.600143,89.048164 224.659439,86.144707 229.889420,86.036583 
	C243.538391,85.754402 257.190308,85.499733 270.841400,85.479980 
	C278.488037,85.468910 281.671692,88.861160 282.107544,96.398613 
	C282.558746,104.201546 283.325989,111.989914 283.607941,119.797195 
	C283.729126,123.153038 285.408630,124.236801 288.209320,125.209618 
	C294.492218,127.391998 300.714417,129.784119 306.835144,132.387543 
	C311.840759,134.516663 312.213501,135.927841 309.076263,140.141922 
	C303.712463,147.346802 298.276215,154.505844 292.590576,161.455231 
	C291.627472,162.632446 289.105835,163.409622 287.574341,163.087524 
	C282.376495,161.994370 277.369781,159.976517 272.165619,158.932053 
	C233.869202,151.246185 202.260300,162.644150 177.180038,193.117004 
	C176.888199,194.045059 176.663666,194.414185 176.439133,194.783310 
M195.541428,172.032715 
	C204.336899,167.429520 212.714569,161.565414 222.014267,158.484009 
	C241.745834,151.946060 261.879456,152.846832 281.699219,159.132935 
	C290.001251,161.766037 289.970490,161.852371 295.199585,154.699432 
	C295.689819,154.028854 296.274323,153.427078 296.762756,152.755341 
	C300.700378,147.339996 304.625488,141.915543 309.232422,135.558289 
	C301.315582,132.662170 294.634003,129.811691 287.704651,127.825623 
	C283.073029,126.498116 281.167297,124.035378 281.037842,119.442902 
	C280.827271,111.975052 280.423096,104.511810 280.033630,97.050125 
	C279.772675,92.050880 276.297913,88.009773 271.881012,87.973137 
	C258.552032,87.862587 245.220642,87.851997 231.892029,87.984955 
	C226.667847,88.037064 223.646561,90.703705 223.119125,95.661629 
	C222.260330,103.734230 221.324463,111.830887 221.163788,119.932121 
	C221.081467,124.082428 219.211578,126.038155 215.956604,127.397560 
	C206.508194,131.343613 197.060486,135.296814 187.524063,139.020721 
	C186.086151,139.582245 183.641830,139.594757 182.572021,138.732910 
	C176.775223,134.062988 171.035660,129.272491 165.712219,124.076958 
	C158.983597,117.510017 154.134476,117.288239 147.451630,124.009026 
	C144.187424,127.291740 140.878281,130.531738 137.679840,133.877457 
	C132.310104,139.494461 126.925644,145.102066 121.721565,150.870773 
	C119.150497,153.720795 119.226013,157.118057 121.608078,160.018448 
	C126.324722,165.761444 131.330856,171.265610 136.128662,176.943436 
	C138.590851,179.857224 141.324295,182.845688 139.660156,187.142685 
	C138.656097,189.735291 137.156479,192.133072 136.099380,194.708618 
	C133.647644,200.682190 130.894684,206.582962 129.083496,212.753815 
	C127.390015,218.523621 125.292862,220.687881 119.063972,220.921997 
	C112.430389,221.171310 105.793060,221.474380 99.177452,222.004684 
	C92.757271,222.519318 89.047882,225.452896 89.008392,230.094238 
	C88.894981,243.423325 88.855270,256.755493 89.031113,270.083191 
	C89.089348,274.497345 91.225212,277.663483 96.157433,278.117126 
	C104.721054,278.904816 113.303055,279.574280 121.821854,280.709656 
	C123.918015,280.989014 126.850914,282.404663 127.606415,284.097839 
	C131.792160,293.478729 135.596786,303.043793 139.116852,312.697113 
	C139.931931,314.932373 140.128738,318.490936 138.890884,320.182648 
	C134.102829,326.726288 128.986633,333.127106 123.270889,338.861725 
	C119.237640,342.908264 118.324142,347.359222 123.473557,352.586670 
	C131.377380,360.610229 139.291489,368.623688 147.179352,376.662933 
	C152.986938,382.581909 157.561356,383.521149 161.791946,379.857208 
	C167.810944,374.644379 174.001175,369.629578 180.041122,364.440399 
	C183.378250,361.573334 186.724396,361.548218 190.657730,363.281982 
	C199.162231,367.030670 207.729599,370.667633 216.429184,373.928986 
	C220.349792,375.398804 221.850708,377.687134 221.948166,381.704163 
	C222.137451,389.505310 222.596741,397.301392 223.037155,405.094330 
	C223.253708,408.925842 224.570480,412.008423 229.126312,412.113037 
	C243.417465,412.441315 257.709290,412.916229 272.001007,412.921295 
	C275.653473,412.922577 278.632996,410.558380 279.033508,406.416168 
	C279.798126,398.507965 280.426147,390.586182 281.068848,382.666656 
	C281.374176,378.904419 281.933838,375.375732 286.152802,373.848419 
	C292.500031,371.550659 298.815521,369.165253 305.152466,366.838959 
	C307.616821,365.934326 308.896362,364.794800 306.870056,362.125458 
	C302.184967,355.953613 297.639679,349.675720 293.027832,343.448120 
	C290.656982,340.246643 288.211395,339.681366 284.067902,341.198090 
	C268.117493,347.036926 251.139343,348.156158 234.851639,345.284821 
	C212.214584,341.294128 192.552551,330.734711 177.492783,312.198303 
	C163.169098,294.567871 155.843903,274.708954 155.151733,252.325516 
	C154.679932,237.068222 157.731323,222.409637 164.651840,208.634308 
	C171.919785,194.167358 181.730972,181.899780 195.541428,172.032715 
z"/>
<path fill="#070707" opacity="1.000000" stroke="none" 
	d="
M274.996552,193.561340 
	C283.844513,193.240952 292.327423,192.993179 300.804840,193.118546 
	C305.768555,193.191925 308.701477,195.868027 308.855133,200.825134 
	C308.980530,204.871460 307.990540,208.947052 307.587097,213.018799 
	C307.487274,214.026474 307.637207,215.093674 307.861389,216.091019 
	C308.256836,217.850586 309.133606,219.560165 309.224335,221.320801 
	C309.930634,235.025375 307.583740,237.763626 295.036011,237.091064 
	C289.557465,236.797440 284.047913,236.940704 278.556763,237.069946 
	C274.172150,237.173172 272.110535,235.287796 272.146790,230.846008 
	C272.232422,220.357681 272.078857,209.865677 272.318085,199.381943 
	C272.361023,197.501587 273.822601,195.653610 274.996552,193.561340 
M289.504517,229.063690 
	C292.000183,229.063812 294.515564,228.865005 296.987061,229.109406 
	C300.968964,229.503189 301.784943,227.429871 301.704895,224.037613 
	C301.627930,220.777466 301.000610,218.488251 296.965607,218.841370 
	C294.323578,219.072601 291.543335,219.314682 289.026642,218.711075 
	C287.785248,218.413345 286.539337,216.339218 286.121979,214.838974 
	C285.553711,212.796249 286.032257,210.828705 289.024231,210.929749 
	C292.181305,211.036392 295.350433,211.045654 298.504974,210.898193 
	C301.989288,210.735321 301.862976,207.877106 301.454987,205.735336 
	C301.131256,204.035919 299.668854,201.297531 298.549744,201.214752 
	C292.495880,200.767029 286.391510,201.002533 280.341980,201.002533 
	C280.341980,210.645203 280.341980,219.708313 280.341980,229.063705 
	C283.251373,229.063705 285.889557,229.063705 289.504517,229.063690 
z"/>
<path fill="#080808" opacity="1.000000" stroke="none" 
	d="
M266.300446,291.899780 
	C266.515564,286.614807 266.416687,281.770813 267.024994,277.017365 
	C267.845978,270.602112 271.571106,267.375214 278.087738,267.110535 
	C283.394806,266.894989 288.724640,266.875122 294.030792,267.095612 
	C300.560822,267.366943 304.519287,270.568207 304.971252,277.066010 
	C305.532440,285.133759 305.520081,293.303772 304.929901,301.369232 
	C304.471191,307.638550 300.570374,310.676819 294.230713,310.959045 
	C289.588013,311.165741 284.929779,311.063019 280.278809,311.036316 
	C271.172150,310.983978 267.759064,307.941010 266.662781,298.837799 
	C266.405548,296.702057 266.414795,294.534180 266.300446,291.899780 
M274.199310,293.239105 
	C274.297333,302.649689 274.707031,303.060608 284.007355,303.062836 
	C286.665527,303.063477 289.331299,302.931335 291.980072,303.088257 
	C295.847015,303.317352 297.567596,301.212036 297.671539,297.764374 
	C297.846649,291.957336 297.854858,286.136688 297.665649,280.330475 
	C297.554382,276.916199 295.865326,274.794891 291.986145,274.955139 
	C288.005737,275.119568 284.008972,275.106781 280.027344,274.958618 
	C276.490021,274.826965 274.669250,276.532532 274.474121,279.860352 
	C274.231537,283.998657 274.276947,288.153870 274.199310,293.239105 
z"/>
<path fill="#070707" opacity="1.000000" stroke="none" 
	d="
M215.992401,280.353149 
	C217.423782,269.839935 220.559006,267.076050 230.656082,267.025604 
	C234.643921,267.005676 238.634857,266.930908 242.619263,267.050995 
	C250.140060,267.277618 254.232697,270.630402 254.776505,278.108978 
	C255.305008,285.377014 255.313690,292.744843 254.775406,300.011383 
	C254.215973,307.563416 250.191727,310.832947 242.634079,311.008606 
	C238.150024,311.112823 233.660934,311.083801 229.175385,311.022614 
	C220.585739,310.905365 216.645798,307.381378 216.114517,298.748840 
	C215.747711,292.789001 215.997955,286.791199 215.992401,280.353149 
M223.871887,288.514679 
	C223.893265,291.501495 223.932281,294.488342 223.931625,297.475159 
	C223.930786,301.398621 225.803925,303.219208 229.786316,303.083679 
	C233.764755,302.948334 237.752335,302.982758 241.733643,303.060089 
	C245.251312,303.128357 246.993927,301.448517 247.054550,297.999908 
	C247.124542,294.018311 247.148285,290.035492 247.150681,286.053223 
	C247.157364,274.983002 247.148804,274.961182 236.270050,274.987823 
	C224.387329,275.016907 223.672165,273.256226 223.871887,288.514679 
z"/>
<path fill="#080808" opacity="1.000000" stroke="none" 
	d="
M372.234222,292.755127 
	C362.982544,292.658112 360.818939,290.723602 360.385712,282.062927 
	C360.245789,279.265381 360.460114,276.391724 360.960846,273.634277 
	C361.699890,269.564392 364.306030,267.131622 368.547180,267.075470 
	C376.529816,266.969757 384.514862,267.045013 392.922180,267.045013 
	C392.922180,269.630981 392.922180,272.008698 392.922180,274.988068 
	C387.251099,274.988068 381.648804,274.821625 376.062775,275.051208 
	C372.773102,275.186462 368.194000,272.931152 368.117554,279.755981 
	C368.043213,286.392487 372.325928,284.688324 375.847565,284.807892 
	C378.841156,284.909576 381.840973,284.816650 384.837616,284.848450 
	C386.000153,284.860779 387.196533,284.823700 388.317474,285.075897 
	C393.238434,286.183136 395.326202,291.444733 394.620575,300.752502 
	C394.113098,307.445953 391.740662,310.777008 386.642487,310.916168 
	C378.172119,311.147369 369.690826,310.979095 360.794800,310.979095 
	C360.794800,308.339478 360.794800,305.959412 360.794800,303.051880 
	C367.709412,303.051880 374.327637,302.833893 380.922516,303.131836 
	C385.023682,303.317139 386.869202,302.492828 386.917084,297.792450 
	C386.968597,292.733002 384.442932,292.466248 380.690186,292.724487 
	C378.038879,292.906921 375.364655,292.756836 372.234222,292.755127 
z"/>
<path fill="#060606" opacity="1.000000" stroke="none" 
	d="
M176.469528,195.274399 
	C176.663666,194.414185 176.888199,194.045059 177.084549,193.447968 
	C179.198364,193.219971 181.340378,193.219971 184.135956,193.219971 
	C184.135956,198.970001 184.135956,204.668823 184.135956,210.321671 
	C189.729614,211.858795 193.412491,210.791122 195.546417,205.623123 
	C196.614120,203.037308 198.609970,200.829025 199.634583,198.232376 
	C201.590149,193.276550 204.938614,191.921417 210.853470,193.789093 
	C206.909668,200.794754 203.063965,207.626175 199.373535,214.181747 
	C203.605759,221.476822 207.796066,228.699677 212.204819,236.299072 
	C206.329727,237.897446 202.527817,237.440979 200.475174,232.020538 
	C199.488525,229.415054 197.425186,227.222794 196.396332,224.626663 
	C194.191589,219.063339 190.277832,217.763397 184.413849,219.433243 
	C184.413849,225.036972 184.413849,230.788834 184.413849,236.788727 
	C181.653412,236.788727 179.393753,236.788727 176.499924,236.788727 
	C176.499924,222.989212 176.499924,209.377350 176.469528,195.274399 
z"/>
<path fill="#090909" opacity="1.000000" stroke="none" 
	d="
M260.967407,224.597549 
	C259.088470,234.710144 256.344116,236.988632 246.475845,237.012512 
	C242.644470,237.021790 238.810211,237.075653 234.982132,236.954987 
	C227.773117,236.727768 223.526489,233.319229 223.196350,226.080215 
	C222.704620,215.297485 223.068878,204.475723 223.068878,193.345398 
	C225.468063,193.345398 227.711990,193.345398 230.766586,193.345398 
	C230.766586,198.185379 230.751358,202.960541 230.770676,207.735580 
	C230.792267,213.065735 230.849030,218.395721 230.883224,223.725845 
	C230.907104,227.449448 232.727539,229.178513 236.489655,229.058990 
	C239.984451,228.947952 243.492935,228.897156 246.982208,229.076385 
	C251.261078,229.296158 253.092667,227.345306 253.072998,223.174820 
	C253.035309,215.179031 253.097672,207.182770 253.116592,199.186707 
	C253.120850,197.391922 253.117249,195.597092 253.117249,193.412720 
	C255.853470,193.412720 258.074554,193.412720 260.994904,193.412720 
	C260.994904,203.631500 260.994904,213.889328 260.967407,224.597549 
z"/>
<path fill="#0A0A0A" opacity="1.000000" stroke="none" 
	d="
M347.789429,236.983139 
	C342.490570,236.982452 337.659424,237.101608 332.836548,236.952942 
	C325.623047,236.730591 321.563110,233.223984 321.062927,226.025162 
	C319.823730,208.190674 320.678802,211.032745 334.053040,210.934006 
	C340.500061,210.886398 346.947784,210.925797 353.280060,210.925797 
	C354.814514,218.631470 354.635864,218.864365 347.667267,218.866364 
	C341.531433,218.868134 335.395599,218.866714 329.326202,218.866714 
	C327.972229,225.861786 329.065948,227.320923 335.595673,227.381912 
	C341.565063,227.437668 347.535339,227.393753 353.836975,227.393753 
	C353.836975,230.749557 353.836975,233.642502 353.836975,236.983139 
	C351.853088,236.983139 350.056976,236.983139 347.789429,236.983139 
z"/>
<path fill="#040404" opacity="1.000000" stroke="none" 
	d="
M174.109711,274.977325 
	C165.450424,274.986755 165.250931,274.772003 166.999084,267.021118 
	C178.569687,267.021118 190.303391,266.924164 202.028091,267.204254 
	C202.970978,267.226776 204.604355,269.877106 204.543381,271.245056 
	C204.485947,272.533264 202.721207,274.671173 201.517471,274.812103 
	C197.608978,275.269928 193.613312,274.983307 189.200943,274.983307 
	C189.200943,287.140930 189.200943,298.875458 189.200943,310.803223 
	C186.633682,310.803223 184.520828,310.803223 181.892334,310.803223 
	C181.892334,298.996460 181.892334,287.284973 181.892334,274.977814 
	C179.121872,274.977814 176.857239,274.977814 174.109711,274.977325 
z"/>
<path fill="#070707" opacity="1.000000" stroke="none" 
	d="
M316.924622,289.972900 
	C316.924744,282.201111 316.924744,274.924194 316.924744,267.771393 
	C324.662994,266.173004 324.907379,266.357483 324.910614,273.312317 
	C324.914124,280.799469 324.861450,288.287079 324.931000,295.773590 
	C324.990143,302.138641 325.908325,303.016327 332.143311,303.042938 
	C337.589172,303.066162 343.035248,303.047791 348.794434,303.047791 
	C348.794434,305.841095 348.794434,308.083344 348.794434,310.714630 
	C341.149902,310.714630 333.546661,311.060120 325.995789,310.580872 
	C321.688202,310.307434 318.700409,307.222198 317.994019,302.831329 
	C317.338776,298.758209 317.258148,294.592651 316.924622,289.972900 
z"/>
<path fill="#060606" opacity="1.000000" stroke="none" 
	d="
M333.027954,200.928085 
	C328.894653,200.927673 325.255188,200.927673 321.050751,200.927673 
	C320.930328,198.338379 320.820648,195.980103 320.695160,193.281464 
	C331.970276,193.281464 342.783661,193.281464 353.881287,193.281464 
	C353.881287,195.758698 353.881287,197.999939 353.881287,200.928497 
	C346.999146,200.928497 340.260468,200.928497 333.027954,200.928085 
z"/>
<path fill="#07ACFD" opacity="1.000000" stroke="none" 
	d="
M195.267181,172.264877 
	C181.730972,181.899780 171.919785,194.167358 164.651840,208.634308 
	C157.731323,222.409637 154.679932,237.068222 155.151733,252.325516 
	C155.843903,274.708954 163.169098,294.567871 177.492783,312.198303 
	C192.552551,330.734711 212.214584,341.294128 234.851639,345.284821 
	C251.139343,348.156158 268.117493,347.036926 284.067902,341.198090 
	C288.211395,339.681366 290.656982,340.246643 293.027832,343.448120 
	C297.639679,349.675720 302.184967,355.953613 306.870056,362.125458 
	C308.896362,364.794800 307.616821,365.934326 305.152466,366.838959 
	C298.815521,369.165253 292.500031,371.550659 286.152802,373.848419 
	C281.933838,375.375732 281.374176,378.904419 281.068848,382.666656 
	C280.426147,390.586182 279.798126,398.507965 279.033508,406.416168 
	C278.632996,410.558380 275.653473,412.922577 272.001007,412.921295 
	C257.709290,412.916229 243.417465,412.441315 229.126312,412.113037 
	C224.570480,412.008423 223.253708,408.925842 223.037155,405.094330 
	C222.596741,397.301392 222.137451,389.505310 221.948166,381.704163 
	C221.850708,377.687134 220.349792,375.398804 216.429184,373.928986 
	C207.729599,370.667633 199.162231,367.030670 190.657730,363.281982 
	C186.724396,361.548218 183.378250,361.573334 180.041122,364.440399 
	C174.001175,369.629578 167.810944,374.644379 161.791946,379.857208 
	C157.561356,383.521149 152.986938,382.581909 147.179352,376.662933 
	C139.291489,368.623688 131.377380,360.610229 123.473557,352.586670 
	C118.324142,347.359222 119.237640,342.908264 123.270889,338.861725 
	C128.986633,333.127106 134.102829,326.726288 138.890884,320.182648 
	C140.128738,318.490936 139.931931,314.932373 139.116852,312.697113 
	C135.596786,303.043793 131.792160,293.478729 127.606415,284.097839 
	C126.850914,282.404663 123.918015,280.989014 121.821854,280.709656 
	C113.303055,279.574280 104.721054,278.904816 96.157433,278.117126 
	C91.225212,277.663483 89.089348,274.497345 89.031113,270.083191 
	C88.855270,256.755493 88.894981,243.423325 89.008392,230.094238 
	C89.047882,225.452896 92.757271,222.519318 99.177452,222.004684 
	C105.793060,221.474380 112.430389,221.171310 119.063972,220.921997 
	C125.292862,220.687881 127.390015,218.523621 129.083496,212.753815 
	C130.894684,206.582962 133.647644,200.682190 136.099380,194.708618 
	C137.156479,192.133072 138.656097,189.735291 139.660156,187.142685 
	C141.324295,182.845688 138.590851,179.857224 136.128662,176.943436 
	C131.330856,171.265610 126.324722,165.761444 121.608078,160.018448 
	C119.226013,157.118057 119.150497,153.720795 121.721565,150.870773 
	C126.925644,145.102066 132.310104,139.494461 137.679840,133.877457 
	C140.878281,130.531738 144.187424,127.291740 147.451630,124.009026 
	C154.134476,117.288239 158.983597,117.510017 165.712219,124.076958 
	C171.035660,129.272491 176.775223,134.062988 182.572021,138.732910 
	C183.641830,139.594757 186.086151,139.582245 187.524063,139.020721 
	C197.060486,135.296814 206.508194,131.343613 215.956604,127.397560 
	C219.211578,126.038155 221.081467,124.082428 221.163788,119.932121 
	C221.324463,111.830887 222.260330,103.734230 223.119125,95.661629 
	C223.646561,90.703705 226.667847,88.037064 231.892029,87.984955 
	C245.220642,87.851997 258.552032,87.862587 271.881012,87.973137 
	C276.297913,88.009773 279.772675,92.050880 280.033630,97.050125 
	C280.423096,104.511810 280.827271,111.975052 281.037842,119.442902 
	C281.167297,124.035378 283.073029,126.498116 287.704651,127.825623 
	C294.634003,129.811691 301.315582,132.662170 309.232422,135.558289 
	C304.625488,141.915543 300.700378,147.339996 296.762756,152.755341 
	C296.274323,153.427078 295.689819,154.028854 295.199585,154.699432 
	C289.970490,161.852371 290.001251,161.766037 281.699219,159.132935 
	C261.879456,152.846832 241.745834,151.946060 222.014267,158.484009 
	C212.714569,161.565414 204.336899,167.429520 195.267181,172.264877 
z"/>
<path fill="#F9F9F9" opacity="1.000000" stroke="none" 
	d="
M289.016113,229.063690 
	C285.889557,229.063705 283.251373,229.063705 280.341980,229.063705 
	C280.341980,219.708313 280.341980,210.645203 280.341980,201.002533 
	C286.391510,201.002533 292.495880,200.767029 298.549744,201.214752 
	C299.668854,201.297531 301.131256,204.035919 301.454987,205.735336 
	C301.862976,207.877106 301.989288,210.735321 298.504974,210.898193 
	C295.350433,211.045654 292.181305,211.036392 289.024231,210.929749 
	C286.032257,210.828705 285.553711,212.796249 286.121979,214.838974 
	C286.539337,216.339218 287.785248,218.413345 289.026642,218.711075 
	C291.543335,219.314682 294.323578,219.072601 296.965607,218.841370 
	C301.000610,218.488251 301.627930,220.777466 301.704895,224.037613 
	C301.784943,227.429871 300.968964,229.503189 296.987061,229.109406 
	C294.515564,228.865005 292.000183,229.063812 289.016113,229.063690 
z"/>
<path fill="#F9F9F9" opacity="1.000000" stroke="none" 
	d="
M274.198669,292.770447 
	C274.276947,288.153870 274.231537,283.998657 274.474121,279.860352 
	C274.669250,276.532532 276.490021,274.826965 280.027344,274.958618 
	C284.008972,275.106781 288.005737,275.119568 291.986145,274.955139 
	C295.865326,274.794891 297.554382,276.916199 297.665649,280.330475 
	C297.854858,286.136688 297.846649,291.957336 297.671539,297.764374 
	C297.567596,301.212036 295.847015,303.317352 291.980072,303.088257 
	C289.331299,302.931335 286.665527,303.063477 284.007355,303.062836 
	C274.707031,303.060608 274.297333,302.649689 274.198669,292.770447 
z"/>
<path fill="#FDFDFD" opacity="1.000000" stroke="none" 
	d="
M223.872162,288.027954 
	C223.672165,273.256226 224.387329,275.016907 236.270050,274.987823 
	C247.148804,274.961182 247.157364,274.983002 247.150681,286.053223 
	C247.148285,290.035492 247.124542,294.018311 247.054550,297.999908 
	C246.993927,301.448517 245.251312,303.128357 241.733643,303.060089 
	C237.752335,302.982758 233.764755,302.948334 229.786316,303.083679 
	C225.803925,303.219208 223.930786,301.398621 223.931625,297.475159 
	C223.932281,294.488342 223.893265,291.501495 223.872162,288.027954 
z"/>
</svg>